<?xml version="1.0" encoding="UTF-8" standalone="no"?>
<!-- Created with Inkscape (http://www.inkscape.org/) -->

<svg
   width="64"
   height="64"
   id="svg2869"
   version="1.1"
   viewBox="0 0 64 64"
   xmlns:xlink="http://www.w3.org/1999/xlink"
   xmlns="http://www.w3.org/2000/svg"
   xmlns:svg="http://www.w3.org/2000/svg"
   xmlns:rdf="http://www.w3.org/1999/02/22-rdf-syntax-ns#"
   xmlns:cc="http://creativecommons.org/ns#"
   xmlns:dc="http://purl.org/dc/elements/1.1/">
  <defs
     id="defs2871">
    <linearGradient
       id="linearGradient33">
      <stop
         style="stop-color:#fcaf3e;stop-opacity:1"
         offset="0"
         id="stop33" />
      <stop
         style="stop-color:#ce5c00;stop-opacity:1"
         offset="1"
         id="stop34" />
    </linearGradient>
    <linearGradient
       id="linearGradient31">
      <stop
         style="stop-color:#eeeeec;stop-opacity:1"
         offset="0"
         id="stop31" />
      <stop
         style="stop-color:#babdb6;stop-opacity:1"
         offset="1"
         id="stop32" />
    </linearGradient>
    <linearGradient
       id="linearGradient26">
      <stop
         style="stop-color:#729fcf;stop-opacity:1"
         offset="0"
         id="stop25" />
      <stop
         style="stop-color:#204a87;stop-opacity:1"
         offset="1"
         id="stop26" />
    </linearGradient>
    <linearGradient
       id="linearGradient24">
      <stop
         style="stop-color:#729fcf;stop-opacity:1"
         offset="0"
         id="stop23" />
      <stop
         style="stop-color:#204a87;stop-opacity:1"
         offset="1"
         id="stop24" />
    </linearGradient>
    <linearGradient
       id="linearGradient22">
      <stop
         style="stop-color:#729fcf;stop-opacity:1"
         offset="0"
         id="stop21" />
      <stop
         style="stop-color:#204a87;stop-opacity:1"
         offset="1"
         id="stop22" />
    </linearGradient>
    <linearGradient
       id="linearGradient5">
      <stop
         style="stop-color:#ef2929;stop-opacity:1;"
         offset="0"
         id="stop19" />
      <stop
         style="stop-color:#ef2929;stop-opacity:0;"
         offset="1"
         id="stop20" />
    </linearGradient>
    <linearGradient
       id="swatch18">
      <stop
         style="stop-color:#ef2929;stop-opacity:1;"
         offset="0"
         id="stop18" />
    </linearGradient>
    <linearGradient
       id="swatch15">
      <stop
         style="stop-color:#3d0000;stop-opacity:1;"
         offset="0"
         id="stop15" />
    </linearGradient>
    <linearGradient
       id="linearGradient5-1">
      <stop
         style="stop-color:#ef2929;stop-opacity:1;"
         offset="0"
         id="stop5" />
      <stop
         style="stop-color:#ef2929;stop-opacity:0;"
         offset="1"
         id="stop6" />
    </linearGradient>
    <linearGradient
       id="linearGradient3836-9">
      <stop
         style="stop-color:#a40000;stop-opacity:1"
         offset="0"
         id="stop3838-8" />
      <stop
         style="stop-color:#ef2929;stop-opacity:1"
         offset="1"
         id="stop3840-1" />
    </linearGradient>
    <linearGradient
       xlink:href="#linearGradient31"
       id="linearGradient32"
       x1="16.746094"
       y1="39.500977"
       x2="23.913086"
       y2="47.429688"
       gradientUnits="userSpaceOnUse" />
    <radialGradient
       xlink:href="#linearGradient33"
       id="radialGradient34"
       cx="41.691032"
       cy="13.299936"
       fx="41.691032"
       fy="13.299936"
       r="17.658757"
       gradientTransform="matrix(0.66512955,0.70586481,-0.95960493,0.9042264,26.723779,-28.484206)"
       gradientUnits="userSpaceOnUse" />
  </defs>
  <metadata
     id="metadata2874">
    <rdf:RDF>
      <cc:Work
         rdf:about="">
        <dc:format>image/svg+xml</dc:format>
        <dc:type
           rdf:resource="http://purl.org/dc/dcmitype/StillImage" />
        <dc:creator>
          <cc:Agent>
            <dc:title>[maxwxyz]</dc:title>
          </cc:Agent>
        </dc:creator>
        <dc:relation>https://www.freecad.org/wiki/index.php?title=Artwork</dc:relation>
        <dc:publisher>
          <cc:Agent>
            <dc:title>FreeCAD</dc:title>
          </cc:Agent>
        </dc:publisher>
        <dc:identifier>FreeCAD/src/</dc:identifier>
        <dc:rights>
          <cc:Agent>
            <dc:title>FreeCAD LGPL2+</dc:title>
          </cc:Agent>
        </dc:rights>
        <dc:date>2024</dc:date>
      </cc:Work>
    </rdf:RDF>
  </metadata>
  <g
     id="layer3"
     style="display:inline">
    <path
       id="path3753"
       d="M 3.7677318,56.679288 6.8175506,52.897635 C 5.1505765,50.818566 5.3491918,49.600729 5.7544562,48.47829 L 26.056297,27.956953 c 5.883086,2.206974 8.893696,5.781857 9.474027,10.514066 L 14.786837,58.161222 C 11.9853,59.83713 11.207842,58.066392 10.05176,57.416085 l -3.9382253,2.799116 z"
       style="fill:#eeeeec;fill-opacity:1;stroke:#0b1e23;stroke-width:1.5;stroke-linecap:round;stroke-linejoin:round;stroke-miterlimit:4;stroke-dasharray:none;stroke-opacity:1" />
    <path
       id="path29"
       d="m 26.423828,29.71875 c 4.531636,1.91951 6.840621,4.709324 7.503906,8.205078 L 13.898438,56.935547 c -0.39345,0.222829 -0.696745,0.344897 -0.904297,0.392578 -0.90249,0.207328 -0.672853,-0.356859 -2.205078,-1.21875 L 9.9589844,55.642578 6.5078125,58.095703 5.625,56.765625 8.7441406,52.902344 7.9882812,51.960937 C 6.9122633,50.618916 6.8781763,49.939288 7.0683594,49.283203 Z"
       style="fill:url(#linearGradient32);fill-opacity:1;stroke:#eeeeec;stroke-width:1.5;stroke-linecap:round;stroke-linejoin:round;stroke-miterlimit:4;stroke-dasharray:none;stroke-opacity:1" />
    <path
       id="path3755"
       d="m 24.626517,27.478481 c 8.94564,4.40978 7.965878,5.469917 11.363144,13.036822 3.032007,3.995408 8.644399,-2.088874 5.744416,-5.755081 3.424912,-11.041706 10.098986,-1.59828 14.24424,-5.800261 C 70.762174,14.787393 46.912353,-5.8071904 34.608499,7.5376946 30.200408,12.265661 41.523987,19.64087 29.594078,21.948591 c -4.679647,-3.47124 -8.295592,1.257132 -4.967561,5.52989 z"
       style="fill:#fcaf3e;fill-opacity:1;stroke:#22160c;stroke-width:2;stroke-linecap:round;stroke-linejoin:round;stroke-opacity:1;stroke-dasharray:none" />
    <path
       id="path32"
       d="m 44.46875,5.2285156 c 9.575175,0.22218 20.173876,12.6556914 10.125,22.2890624 -0.0132,0.01284 -0.02622,0.02586 -0.03906,0.03906 -2.366645,2.399032 -10.996914,-5.425421 -14.730468,6.611328 -0.194935,0.629688 -0.06708,1.314994 0.341797,1.832031 1.132014,1.431112 -1.009182,5.024721 -2.46875,3.425781 -2.902307,-6.54626 -2.822294,-9.028435 -11.720704,-13.501953 -1.50822,-2.270076 -0.278873,-4.375383 2.425782,-2.369141 0.45022,0.333934 1.019916,0.463604 1.570312,0.357422 5.480265,-1.060102 7.551883,-3.439773 7.263672,-6.839843 -0.341392,-4.02746 -2.885143,-6.325904 -1.164062,-8.1718754 0.0026,-0.0026 0.0052,-0.0052 0.0078,-0.00781 2.470317,-2.6793304 5.456988,-3.7320885 8.388672,-3.6640625 z"
       style="fill:url(#radialGradient34);fill-opacity:1;stroke:#fcaf3e;stroke-width:2;stroke-linecap:round;stroke-linejoin:round;stroke-opacity:1;stroke-dasharray:none" />
  </g>
</svg>
