<?xml version="1.0" encoding="UTF-8" standalone="no"?>
<!-- Created with Inkscape (http://www.inkscape.org/) -->

<svg
   xmlns:dc="http://purl.org/dc/elements/1.1/"
   xmlns:cc="http://creativecommons.org/ns#"
   xmlns:rdf="http://www.w3.org/1999/02/22-rdf-syntax-ns#"
   xmlns:svg="http://www.w3.org/2000/svg"
   xmlns="http://www.w3.org/2000/svg"
   xmlns:xlink="http://www.w3.org/1999/xlink"
   xmlns:sodipodi="http://sodipodi.sourceforge.net/DTD/sodipodi-0.dtd"
   xmlns:inkscape="http://www.inkscape.org/namespaces/inkscape"
   width="64px"
   height="64px"
   id="svg2901"
   sodipodi:version="0.32"
   inkscape:version="0.48.4 r9939"
   sodipodi:docname="Part_Torus.svg"
   inkscape:output_extension="org.inkscape.output.svg.inkscape"
   version="1.1">
  <defs
     id="defs2903">
    <linearGradient
       id="linearGradient3273">
      <stop
         id="stop3275"
         offset="0"
         style="stop-color:#b1acff;stop-opacity:1;" />
      <stop
         id="stop3277"
         offset="1"
         style="stop-color:#faff2b;stop-opacity:0;" />
    </linearGradient>
    <radialGradient
       inkscape:collect="always"
       xlink:href="#linearGradient3273"
       id="radialGradient3590"
       cx="235.36554"
       cy="100.66685"
       fx="235.36554"
       fy="100.66685"
       r="12.369295"
       gradientTransform="matrix(1.2178186,-0.1556762,0.07602487,0.5947245,-57.00968,81.020812)"
       gradientUnits="userSpaceOnUse" />
    <linearGradient
       id="linearGradient3377">
      <stop
         id="stop3379"
         offset="0"
         style="stop-color:#b4b0ff;stop-opacity:1;" />
      <stop
         id="stop3381"
         offset="1"
         style="stop-color:#321eff;stop-opacity:1;" />
    </linearGradient>
    <radialGradient
       inkscape:collect="always"
       xlink:href="#linearGradient3377"
       id="radialGradient3711"
       gradientUnits="userSpaceOnUse"
       cx="210.14677"
       cy="90.154442"
       fx="210.14677"
       fy="90.154442"
       r="19.467436"
       gradientTransform="matrix(0.4753781,0.8155084,-1.8390522,1.0720245,275.19339,-173.57247)" />
    <inkscape:perspective
       sodipodi:type="inkscape:persp3d"
       inkscape:vp_x="-347.0978 : 209.24607 : 1"
       inkscape:vp_y="0 : 427.62691 : 0"
       inkscape:vp_z="482.73953 : 196.2196 : 1"
       inkscape:persp3d-origin="92.150405 : 7.134766 : 1"
       id="perspective2909" />
  </defs>
  <sodipodi:namedview
     id="base"
     pagecolor="#ffffff"
     bordercolor="#666666"
     borderopacity="1.0"
     inkscape:pageopacity="0.0"
     inkscape:pageshadow="2"
     inkscape:zoom="4.187398"
     inkscape:cx="59.541033"
     inkscape:cy="60.446102"
     inkscape:current-layer="g3624"
     showgrid="true"
     inkscape:document-units="px"
     inkscape:grid-bbox="true"
     inkscape:window-width="1920"
     inkscape:window-height="990"
     inkscape:window-x="-11"
     inkscape:window-y="-11"
     inkscape:window-maximized="1" />
  <metadata
     id="metadata2906">
    <rdf:RDF>
      <cc:Work
         rdf:about="">
        <dc:format>image/svg+xml</dc:format>
        <dc:type
           rdf:resource="http://purl.org/dc/dcmitype/StillImage" />
        <dc:title></dc:title>
      </cc:Work>
    </rdf:RDF>
  </metadata>
  <g
     id="layer1"
     inkscape:label="Layer 1"
     inkscape:groupmode="layer">
    <g
       id="g3624"
       transform="translate(-196.35792,-69.337219)">
      <path
         inkscape:connector-curvature="0"
         id="path3849"
         style="fill:none;stroke:#000000;stroke-width:1.41732287;stroke-linecap:round;stroke-linejoin:round;stroke-miterlimit:4;stroke-opacity:1;stroke-dasharray:none;stroke-dashoffset:0"
         d="m 200.15317,117.10371 25.57238,13.88088 30.92569,-12.92536 -25.92357,-12.17193 z" />
      <path
         inkscape:connector-curvature="0"
         id="path3851"
         style="fill:none;stroke:#000000;stroke-width:1.41732287;stroke-linecap:round;stroke-linejoin:round;stroke-miterlimit:4;stroke-opacity:1;stroke-dasharray:none;stroke-dashoffset:0"
         d="m 200.15317,117.10371 0,-31.999583 30.5745,-9.181755 0,29.964928 z" />
      <path
         inkscape:connector-curvature="0"
         id="path3853"
         style="fill:none;stroke:#000000;stroke-width:1.41732287;stroke-linecap:round;stroke-linejoin:round;stroke-miterlimit:4;stroke-opacity:1;stroke-dasharray:none;stroke-dashoffset:0"
         d="m 230.72767,105.8873 25.92357,12.17193 0,-32.011517 -25.92357,-10.125341 z" />
      <path
         sodipodi:nodetypes="csssccsssc"
         id="path3592"
         d="m 236.11509,111.51998 c -13.1408,0 -23.81284,3.83497 -23.81284,8.56219 0,4.72723 10.67204,8.5622 23.81284,8.5622 13.14081,0 23.81286,-3.83497 23.81286,-8.5622 0,-4.72722 -10.67205,-8.56219 -23.81286,-8.56219 z m 1.01893,6.33353 c 7.76175,-1e-5 10.02467,0.84799 10.02467,1.84585 0,0.99787 -3.57767,1.65634 -11.33941,1.65634 -7.76172,0 -11.36406,-0.81009 -11.36406,-1.80795 -1e-5,-0.99786 4.91707,-1.69424 12.6788,-1.69424 z"
         style="opacity:0.66523605;fill:#000000;fill-opacity:1;fill-rule:evenodd;stroke:none;stroke-width:1.07586193;marker:none;visibility:visible;display:inline;overflow:visible;enable-background:accumulate"
         inkscape:connector-curvature="0" />
      <path
         sodipodi:nodetypes="cssscccscc"
         id="path3568"
         d="m 227.21984,81.930789 c -14.27855,0 -25.8746,9.03375 -25.8746,20.169331 0,11.13559 11.59605,20.16934 25.8746,20.16934 14.27856,0 25.87461,-9.03375 25.87461,-20.16934 0,-11.135583 -11.59605,-20.169331 -25.87461,-20.169331 z m 1.10715,14.919417 c 8.43377,-2e-6 9.25626,3.633924 10.89262,4.348154 -2.18182,1.62331 -3.88743,3.90172 -12.32119,3.90172 -8.43375,0 -9.98434,-2.81737 -12.34798,-4.25887 1.99999,-1.25968 5.34279,-3.991004 13.77655,-3.991004 z"
         style="fill:url(#radialGradient3711);fill-opacity:1;fill-rule:evenodd;stroke:#636363;stroke-width:2.20000005;stroke-linecap:butt;stroke-linejoin:round;stroke-miterlimit:4;stroke-opacity:1;stroke-dasharray:none;stroke-dashoffset:0;marker:none;visibility:visible;display:inline;overflow:visible;enable-background:accumulate"
         inkscape:connector-curvature="0" />
      <path
         sodipodi:nodetypes="ccccsccccc"
         id="path3580"
         d="m 237.31435,104.1859 c -4.90667,3.38245 -11.60382,2.02496 -17.34955,2.19888 l 3.07192,5.95445 12.47155,1.88506 c 0,0 7.3236,-1.01015 8.83883,-1.26269 1.51523,-0.25254 7.4768,-8.3517 7.4768,-8.3517 l -1.18873,-7.05313 -15.75825,-7.134203 1.7345,5.974802 c 3.82115,2.359046 5.47647,5.818401 0.70293,7.788531 z"
         style="fill:url(#radialGradient3590);fill-opacity:1;fill-rule:evenodd;stroke:none"
         inkscape:connector-curvature="0" />
      <path
         inkscape:connector-curvature="0"
         id="path3855"
         style="fill:none;stroke:#000000;stroke-width:3;stroke-linecap:round;stroke-linejoin:round;stroke-miterlimit:4;stroke-opacity:1;stroke-dasharray:none;stroke-dashoffset:0"
         d="M 200.15317,85.104127 225.72555,96.64018 256.65124,86.047713 230.72767,75.922372 z" />
      <path
         inkscape:connector-curvature="0"
         id="path3857"
         style="fill:none;stroke:#000000;stroke-width:3;stroke-linecap:round;stroke-linejoin:round;stroke-miterlimit:4;stroke-opacity:1;stroke-dasharray:none;stroke-dashoffset:0"
         d="m 225.72555,130.98459 0,-34.34441 30.92569,-10.592467 0,32.011517 z" />
      <path
         inkscape:connector-curvature="0"
         id="path3859"
         style="fill:none;stroke:#000000;stroke-width:3;stroke-linecap:round;stroke-linejoin:round;stroke-miterlimit:4;stroke-opacity:1;stroke-dasharray:none;stroke-dashoffset:0"
         d="m 200.15317,117.10371 25.57238,13.88088 0,-34.34441 -25.57238,-11.536053 z" />
    </g>
  </g>
</svg>
