<?xml version="1.0" encoding="UTF-8" standalone="no"?>
<!-- Created with Inkscape (http://www.inkscape.org/) -->

<svg
   width="64"
   height="64"
   id="svg2869"
   version="1.1"
   viewBox="0 0 64 64"
   xmlns:xlink="http://www.w3.org/1999/xlink"
   xmlns="http://www.w3.org/2000/svg"
   xmlns:svg="http://www.w3.org/2000/svg"
   xmlns:rdf="http://www.w3.org/1999/02/22-rdf-syntax-ns#"
   xmlns:cc="http://creativecommons.org/ns#"
   xmlns:dc="http://purl.org/dc/elements/1.1/">
  <defs
     id="defs2871">
    <linearGradient
       id="linearGradient5">
      <stop
         style="stop-color:#ef2929;stop-opacity:1;"
         offset="0"
         id="stop19" />
      <stop
         style="stop-color:#ef2929;stop-opacity:0;"
         offset="1"
         id="stop20" />
    </linearGradient>
    <linearGradient
       id="swatch18">
      <stop
         style="stop-color:#ef2929;stop-opacity:1;"
         offset="0"
         id="stop18" />
    </linearGradient>
    <linearGradient
       id="swatch15">
      <stop
         style="stop-color:#3d0000;stop-opacity:1;"
         offset="0"
         id="stop15" />
    </linearGradient>
    <linearGradient
       id="linearGradient5-1">
      <stop
         style="stop-color:#ef2929;stop-opacity:1;"
         offset="0"
         id="stop5" />
      <stop
         style="stop-color:#ef2929;stop-opacity:0;"
         offset="1"
         id="stop6" />
    </linearGradient>
    <linearGradient
       id="linearGradient3836-9">
      <stop
         style="stop-color:#a40000;stop-opacity:1"
         offset="0"
         id="stop3838-8" />
      <stop
         style="stop-color:#ef2929;stop-opacity:1"
         offset="1"
         id="stop3840-1" />
    </linearGradient>
    <linearGradient
       xlink:href="#linearGradient1"
       id="linearGradient50"
       gradientUnits="userSpaceOnUse"
       x1="-10.642081"
       y1="27.423328"
       x2="0"
       y2="43.607929" />
    <linearGradient
       id="linearGradient1">
      <stop
         style="stop-color:#fcaf3e;stop-opacity:1"
         offset="0"
         id="stop3" />
      <stop
         style="stop-color:#f57900;stop-opacity:1"
         offset="1"
         id="stop4" />
    </linearGradient>
    <linearGradient
       xlink:href="#linearGradient1"
       id="linearGradient82"
       gradientUnits="userSpaceOnUse"
       x1="-10.642081"
       y1="27.423328"
       x2="0"
       y2="43.607929" />
    <linearGradient
       xlink:href="#linearGradient1"
       id="linearGradient88"
       gradientUnits="userSpaceOnUse"
       x1="-10.642081"
       y1="27.423328"
       x2="0"
       y2="43.607929" />
  </defs>
  <metadata
     id="metadata2874">
    <rdf:RDF>
      <cc:Work
         rdf:about="">
        <dc:format>image/svg+xml</dc:format>
        <dc:type
           rdf:resource="http://purl.org/dc/dcmitype/StillImage" />
        <dc:creator>
          <cc:Agent>
            <dc:title>[maxwxyz]</dc:title>
          </cc:Agent>
        </dc:creator>
        <dc:relation>https://www.freecad.org/wiki/index.php?title=Artwork</dc:relation>
        <dc:publisher>
          <cc:Agent>
            <dc:title>FreeCAD</dc:title>
          </cc:Agent>
        </dc:publisher>
        <dc:identifier>FreeCAD/src/</dc:identifier>
        <dc:rights>
          <cc:Agent>
            <dc:title>FreeCAD LGPL2+</dc:title>
          </cc:Agent>
        </dc:rights>
        <dc:date>2024</dc:date>
      </cc:Work>
    </rdf:RDF>
  </metadata>
  <g
     id="layer3"
     style="display:inline">
    <g
       id="layer3-5"
       style="display:inline">
      <path
         d="M 51.418457,57.821396 C 52.49389,46.707185 40.622639,41.763164 29.687821,40.244948"
         style="fill:none;fill-opacity:1;stroke:#0c1522;stroke-width:8;stroke-linecap:round;stroke-linejoin:miter;stroke-miterlimit:4;stroke-dasharray:none;stroke-dashoffset:0;stroke-opacity:1"
         id="path955" />
      <path
         d="m 51.691185,57.094123 c 0.06534,-0.670809 0.08082,-1.31876 0.04973,-1.944477 M 50.906962,51.3657 c -0.493934,-1.201747 -1.188937,-2.296847 -2.046846,-3.292499 m -2.887162,-2.59871 c -1.0237,-0.731475 -2.150031,-1.387737 -3.351028,-1.97406 M 39.024908,42.015638 C 37.81407,41.594419 36.562581,41.228042 35.29215,40.912414 m -3.811241,-0.792759 c -0.643027,-0.109488 -1.285414,-0.207314 -1.92445,-0.293989"
         style="fill:none;fill-opacity:1;stroke:#729fcf;stroke-width:3;stroke-linecap:round;stroke-linejoin:round;stroke-miterlimit:4;stroke-dasharray:none;stroke-dashoffset:0;stroke-opacity:1"
         id="path950" />
      <path
         d="M 29.687821,40.244948 C 16.94817,38.476146 5.4795864,41.357362 17.236639,44.548669 38.554092,50.335027 63.514703,34.169029 47.691184,19.094123"
         style="fill:none;fill-opacity:1;stroke:#0c1522;stroke-width:8;stroke-linecap:round;stroke-linejoin:miter;stroke-miterlimit:4;stroke-dasharray:none;stroke-dashoffset:0;stroke-opacity:1"
         id="path3821" />
      <path
         d="M 29.556459,39.825666 C 28.889182,39.73516 28.225557,39.656813 27.56867,39.590041 m -3.9936,-0.27198 c -1.416519,-0.04839 -2.763253,-0.04187 -4.002576,0.01246 m -3.981088,0.398246 c -2.101334,0.36518 -3.40681,0.933824 -3.471017,1.621914 m 3.193885,2.095495 c 0.55957,0.18387 1.198775,0.369849 1.922365,0.557041 0.740947,0.191683 1.481121,0.36039 2.219323,0.506923 m 4.507442,0.628739 c 1.540398,0.125211 3.060822,0.157766 4.549799,0.105353 m 4.53044,-0.430554 c 1.537229,-0.240554 3.022981,-0.57245 4.442422,-0.985751 m 4.268386,-1.574927 c 1.436228,-0.653679 2.766296,-1.399109 3.968361,-2.221657 m 3.453257,-2.953288 c 1.079144,-1.172247 1.938121,-2.433112 2.538806,-3.757053 m 0.994222,-4.409064 c 0.008,-1.446554 -0.290084,-2.929883 -0.933865,-4.423506 m -2.429499,-3.831751 c -0.468354,-0.553299 -0.988895,-1.104904 -1.56364,-1.653464"
         style="fill:none;fill-opacity:1;stroke:#729fcf;stroke-width:3;stroke-linecap:round;stroke-linejoin:round;stroke-miterlimit:4;stroke-dasharray:none;stroke-dashoffset:0;stroke-opacity:1"
         id="path3823" />
      <g
         id="g82"
         transform="rotate(-2.8649922,751.70218,79.326622)"
         style="display:inline">
        <g
           id="g80"
           style="display:inline;stroke-width:1.13167;stroke-dasharray:none"
           transform="matrix(0.88624577,0,0,0.88106896,23.737773,-18.381277)">
          <path
             id="path76"
             d="m -17.944936,26.276284 4.043858,16.089393 28.823244,-10.927021 z"
             style="fill:none;stroke:#000000;stroke-width:1.6975;stroke-linecap:round;stroke-linejoin:round;stroke-dasharray:none;stroke-opacity:1" />
          <path
             id="path77"
             d="M -13.901078,42.365677 14.922166,31.438656 -14.331275,28.857471 Z"
             style="fill:#fcaf3e;fill-opacity:1;stroke:#22160c;stroke-width:1.6975;stroke-linecap:round;stroke-linejoin:round;stroke-dasharray:none;stroke-opacity:1" />
          <path
             id="path78"
             d="m -17.944936,26.276284 4.043858,16.089393 -0.430197,-13.508206 z"
             style="fill:#ce5c00;fill-opacity:1;stroke:#22160c;stroke-width:1.6975;stroke-linecap:round;stroke-linejoin:round;stroke-dasharray:none;stroke-opacity:1" />
          <path
             id="path79"
             d="m -14.331275,28.857471 29.253441,2.581185 -32.867102,-5.162372 z"
             style="fill:#ce5c00;fill-opacity:1;stroke:#22160c;stroke-width:1.6975;stroke-linecap:round;stroke-linejoin:round;stroke-dasharray:none;stroke-opacity:1" />
          <path
             id="path80"
             d="M -12.530516,30.748278 7.1705101,32.558061 -12.2376,39.864067 Z"
             style="fill:url(#linearGradient82);fill-opacity:1;stroke:#fcb040;stroke-width:1.6975;stroke-linecap:round;stroke-linejoin:round;stroke-dasharray:none;stroke-opacity:1" />
        </g>
        <g
           id="g81"
           transform="matrix(0.1621282,0,0,0.1621282,9.3605988,-56.108801)"
           style="display:inline" />
      </g>
      <g
         id="g88"
         transform="matrix(-0.96878983,-0.24788357,-0.24788357,0.96878983,60.047109,8.664135)"
         style="display:inline">
        <g
           id="g86"
           style="display:inline;stroke-width:1.13167;stroke-dasharray:none"
           transform="matrix(0.88624577,0,0,0.88106896,23.737773,-18.381277)">
          <path
             id="path82"
             d="m -17.944936,26.276284 4.043858,16.089393 28.823244,-10.927021 z"
             style="fill:none;stroke:#000000;stroke-width:1.6975;stroke-linecap:round;stroke-linejoin:round;stroke-dasharray:none;stroke-opacity:1" />
          <path
             id="path83"
             d="M -13.901078,42.365677 14.922166,31.438656 -14.331275,28.857471 Z"
             style="fill:#fcaf3e;fill-opacity:1;stroke:#22160c;stroke-width:1.6975;stroke-linecap:round;stroke-linejoin:round;stroke-dasharray:none;stroke-opacity:1" />
          <path
             id="path84"
             d="m -17.944936,26.276284 4.043858,16.089393 -0.430197,-13.508206 z"
             style="fill:#ce5c00;fill-opacity:1;stroke:#22160c;stroke-width:1.6975;stroke-linecap:round;stroke-linejoin:round;stroke-dasharray:none;stroke-opacity:1" />
          <path
             id="path85"
             d="m -14.331275,28.857471 29.253441,2.581185 -32.867102,-5.162372 z"
             style="fill:#ce5c00;fill-opacity:1;stroke:#22160c;stroke-width:1.6975;stroke-linecap:round;stroke-linejoin:round;stroke-dasharray:none;stroke-opacity:1" />
          <path
             id="path86"
             d="M -12.530516,30.748278 7.1705101,32.558061 -12.2376,39.864067 Z"
             style="fill:url(#linearGradient88);fill-opacity:1;stroke:#fcb040;stroke-width:1.6975;stroke-linecap:round;stroke-linejoin:round;stroke-dasharray:none;stroke-opacity:1" />
        </g>
        <g
           id="g87"
           transform="matrix(0.1621282,0,0,0.1621282,9.3605988,-56.108801)"
           style="display:inline" />
      </g>
    </g>
  </g>
</svg>
