DBRep_DrawableShape

CASCADE Topology V1, (c) Matra-Datavision
Locations 15
1
              1               0               0               0 
              0               1               0               0 
              0               0               1               0 
1
              1               0               0               0 
              0               1               0               0 
              0               0               1               0 
1
              1               0               0               0 
              0               1               0               0 
              0               0               1               0 
1
              0               0              -1              -0 
             -1               0               0              -0 
              0               1               0               0 
2  4 1 3 1 0
2  3 -1 4 -1 0
1
              1               0               0               0 
              0               1               0               0 
              0               0               1               0 
1
-0.978231976089037 2.77555756156289e-017 0.207514339159822 0.043062200956938 
0.146734796413355 -0.707106781186547 0.691714463866075 0.14354066985646 
0.146734796413356 0.707106781186547 0.691714463866075 0.14354066985646 
1
              1               0               0               0 
              0               1               0               0 
              0               0               1               0 
2  8 1 9 1 0
2  9 -1 8 -1 0
1
0.978231976089037 2.77555756156289e-017 0.207514339159822 0.043062200956938 
0.146734796413355 0.707106781186547 -0.691714463866075 -0.14354066985646 
-0.146734796413356 0.707106781186547 0.691714463866075 0.14354066985646 
1
              1               0               0               0 
              0               1               0               0 
              0               0               1               0 
2  12 1 13 1 0
2  13 -1 12 -1 0
Curve2ds 0
Curves 7
1 0 0 0 1 0 0 
1 -0.29999999999998128 -4.2695787882546599e-015 0 1 1.4231929294183087e-014 0 
1 0.29999999999999999 0 0 -0.70710678118654524 0.70710678118654957 0 
1 2.2233792906188499e-017 0.30000000000000182 0 -0.70710678118651826 -0.70710678118657666 0 
1 0.044020438924006873 -0.21213203435596539 0 -0.9791402332302942 0.20318563844357879 0 
1 -0.04402043892400688 -0.21213203435596534 0 0.9791402332302942 0.20318563844357873 0 
1 -0.97823197608904322 1.214306433183765e-016 0 0.97914023323029442 0.20318563844357873 0 
Polygon3D 0
PolygonOnTriangulations 14
2 1 2 
p 0.00316666666666669 1 0 0.3 
2 2 4 
p 0.00316666666666669 1 0 0.3 
2 3 1 
p 0.00316666666666669 1 0 0.299999999999981 
2 1 2 
p 0.00316666666666669 1 0 0.299999999999981 
2 2 4 
p 0.00316666666666669 1 0 0.42426406871193 
2 1 3 
p 0.00316666666666669 1 0 0.42426406871193 
2 4 3 
p 0.00316666666666669 1 0 0.42426406871192 
2 2 3 
p 0.00316666666666669 1 0 0.42426406871192 
2 1 3 
p 0.00316666666666669 1 0 1.04403065089106 
2 3 1 
p 0.00316666666666669 1 0 1.04403065089106 
2 4 3 
p 0.00316666666666669 1 0 1.04403065089106 
2 1 2 
p 0.00316666666666669 1 0 1.04403065089106 
2 2 3 
p 0.00316666666666669 1 0 1.04403065089106 
2 1 2 
p 0.00316666666666669 1 0 1.04403065089106 
Surfaces 4
1 0 0 0 1 0 -0 0 0 1 0 -1 0 
1 0 0 0 0 0 1 1 0 -0 -0 1 0 
1 0.41556347085957146 -0.087665479371065044 0.087665479371065141 -0.20751433915982237 0.6917144638660746 -0.69171446386607471 0 -0.70710678118654757 -0.70710678118654746 -0.978231976089037 -0.14673479641335552 0.14673479641335554 
1 0.41556347085957152 0.087665479371065058 0.087665479371065114 -0.20751433915982231 -0.69171446386607471 -0.69171446386607471 0 -0.70710678118654757 0.70710678118654757 -0.97823197608903711 0.14673479641335549 0.14673479641335549 
Triangulations 4
4 2 1 4.2491376305591e-018
0 0 0 -1.73472347597681e-018 -0.300000000000001 1.38777878078145e-017 1.73472347597681e-018 0.299999999999991 -2.13598435909256e-015 -1.73472347597681e-018 8.31933993028464e-018 0.300000000000002 0 0 1.38777878078145e-017 0.300000000000001 -2.13598435909256e-015 -0.299999999999991 0.300000000000002 0 4 2 1 4 1 3 
4 2 1 7.18933680268093e-016
1.73472347597681e-018 0.299999999999991 -2.13598435909256e-015 0 0 0 1.00000000000001 -2.77555756156289e-017 -2.08166817117217e-017 -1.73472347597681e-018 -0.300000000000001 1.38777878078145e-017 1.73472347597681e-018 0.299999999999992 0 0 1.00000000000001 0 -1.73472347597681e-018 -0.300000000000001 3 1 2 3 2 4 
3 1 1 6.93889390390723e-017
-1.73472347597681e-018 -0.300000000000001 1.38777878078145e-017 1.00000000000001 -2.77555756156289e-017 -2.08166817117217e-017 -1.73472347597681e-018 8.31933993028464e-018 0.300000000000002 0.212132034355965 0.424810761677399 8.32667268468867e-017 -0.59744165333565 -0.212132034355965 0.4248107616774 1 3 2 
3 1 1 2.692290834716e-015
1.00000000000001 -2.77555756156289e-017 -2.08166817117217e-017 -1.73472347597681e-018 8.31933993028464e-018 0.300000000000002 1.73472347597681e-018 0.299999999999991 -2.13598435909256e-015 -2.77555756156289e-017 -0.59744165333565 0.212132034355966 0.4248107616774 -0.21213203435596 0.424810761677398 2 3 1 

TShapes 23
Ve
1e-007
0 0 0
0 0

0101101
*
Ve
1.00000000839442e-007
-1.73472347597681e-018 -0.300000000000001 1.38777878078145e-017
0 0

0101101
*
Ed
 1e-007 1 1 0
1  1 0 0 0.3
6  1 1 6
6  2 2 6
0

0101000
+23 6 -22 6 *
Ve
1.00000010384143e-007
1.73472347597681e-018 0.299999999999991 -2.13598435909256e-015
0 0

0101101
*
Ed
 1e-007 1 1 0
1  2 0 0 0.299999999999981
6  3 1 6
6  4 2 6
0

0101000
+20 6 -23 6 *
Ve
1.00000000178043e-007
-1.73472347597681e-018 8.31933993028464e-018 0.300000000000002
0 0

0101101
*
Ed
 1e-007 1 1 0
1  3 0 0 0.42426406871193
6  5 1 6
6  6 3 6
0

0101000
+22 6 -18 6 *
Ed
 1e-007 1 1 0
1  4 0 0 0.42426406871192
6  7 1 6
6  8 4 6
0

0101000
+18 6 -20 6 *
Wi

0101000
-21 5 -19 5 -17 5 -16 5 *
Fa
0  1e-007 1 3
2  1
0111000
+15 0 *
Ve
1.00000000466544e-007
1.00000000000001 -2.77555756156289e-017 -2.08166817117217e-017
0 0

0101101
*
Ed
 1e-007 1 1 0
1  5 0 0 1.04403065089106
6  9 2 11
6  10 4 11
0

0101000
+20 11 -13 11 *
Ed
 1e-007 1 1 0
1  6 0 0 1.04403065089106
6  11 2 15
6  12 3 15
0

0101000
+22 15 -13 15 *
Wi

0101000
+19 5 -12 10 +21 5 +11 14 *
Fa
0  1e-007 2 7
2  2
0111000
+10 0 *
Ed
 1e-007 1 1 0
1  7 0 0 1.04403065089106
6  13 3 11
6  14 4 11
0

0101000
+13 11 -18 11 *
Wi

0101000
-11 14 +17 5 -8 10 *
Fa
0  1e-007 3 13
2  3
0111000
+7 0 *
Wi

0101000
+8 10 +12 10 +16 5 *
Fa
0  1e-007 4 9
2  4
0111000
+5 0 *
Sh

0101000
+14 2 +9 2 +6 2 +4 2 *
So

0100000
+3 0 *
Co

1100000
-2 1 *

+1 0 